<svg width="1219" height="1024" viewBox="0 0 1219 1024" fill="none" xmlns="http://www.w3.org/2000/svg">
<path d="M701.59 727.209L642.047 787L630.948 681.059L701.59 727.209Z" fill="#F1873E"/>
<rect x="1144.64" y="565.38" width="487" height="92" transform="rotate(129.019 1144.64 565.38)" fill="#F1873E"/>
<rect x="1775.16" y="-562.17" width="1202" height="92" transform="rotate(129.019 1775.16 -562.17)" fill="#F1873E"/>
<rect x="1086.72" y="636.859" width="1202" height="92" transform="rotate(-140.981 1086.72 636.859)" fill="#F1873E"/>
<rect x="838.034" y="943.75" width="250" height="92" transform="rotate(-140.981 838.034 943.75)" fill="#F1873E"/>
<rect x="861.821" y="661.844" width="329" height="92" transform="rotate(-140.981 861.821 661.844)" fill="#F4A167"/>
<rect x="0.556641" y="1202.13" width="1054" height="92" transform="rotate(-50.9812 0.556641 1202.13)" fill="#F4A167"/>
<rect x="711.03" y="749.451" width="104" height="92" transform="rotate(-140.981 711.03 749.451)" fill="#F1873E"/>
<rect x="1463.8" y="1149.65" width="523.813" height="92" transform="rotate(-140.981 1463.8 1149.65)" fill="#F4A167"/>
</svg>
