<svg width="1216" height="1024" viewBox="0 0 1216 1024" fill="none" xmlns="http://www.w3.org/2000/svg">
<path d="M701.59 730.209L642.047 790L630.948 684.059L701.59 730.209Z" fill="#525564"/>
<rect x="1144.64" y="568.38" width="487" height="92" transform="rotate(129.019 1144.64 568.38)" fill="#525564"/>
<rect x="1775.16" y="-559.17" width="1202" height="92" transform="rotate(129.019 1775.16 -559.17)" fill="#525564"/>
<rect x="1086.72" y="639.859" width="1202" height="92" transform="rotate(-140.981 1086.72 639.859)" fill="#525564"/>
<rect x="838.034" y="946.75" width="250" height="92" transform="rotate(-140.981 838.034 946.75)" fill="#525564"/>
<rect x="861.821" y="664.844" width="329" height="92" transform="rotate(-140.981 861.821 664.844)" fill="#3B3E4F"/>
<rect x="0.556641" y="1205.13" width="1054" height="92" transform="rotate(-50.9812 0.556641 1205.13)" fill="#3B3E4F"/>
<rect x="711.03" y="752.451" width="104" height="92" transform="rotate(-140.981 711.03 752.451)" fill="#525564"/>
<rect x="1463.8" y="1152.65" width="523.813" height="92" transform="rotate(-140.981 1463.8 1152.65)" fill="#3B3E4F"/>
</svg>
